<?xml version="1.0" standalone="no"?>
<!DOCTYPE svg PUBLIC "-//W3C//DTD SVG 20010904//EN"
 "http://www.w3.org/TR/2001/REC-SVG-20010904/DTD/svg10.dtd">
<svg version="1.0" xmlns="http://www.w3.org/2000/svg"
 width="2084.000000pt" height="2084.000000pt" viewBox="0 0 2084.000000 2084.000000"
 preserveAspectRatio="xMidYMid meet">
<metadata>
Created by potrace 1.14, written by Peter Selinger 2001-2017
</metadata>
<g transform="translate(0.000000,2084.000000) scale(0.100000,-0.100000)"
fill="#000000" stroke="none">
<path d="M214 20723 c1 -2 41 -23 88 -47 244 -125 443 -290 673 -556 86 -100
277 -372 341 -485 6 -11 29 -51 51 -90 186 -324 397 -810 546 -1255 65 -196
159 -499 191 -620 8 -30 24 -91 36 -135 12 -44 24 -87 26 -95 2 -8 17 -69 35
-135 17 -66 32 -127 34 -135 2 -8 11 -48 19 -89 9 -41 25 -108 36 -150 10 -42
21 -87 24 -101 2 -14 25 -124 50 -245 25 -121 47 -231 50 -245 2 -14 7 -36 10
-50 3 -14 8 -36 10 -50 2 -14 11 -63 20 -110 8 -47 18 -101 21 -120 3 -19 8
-46 10 -60 11 -51 15 -78 39 -220 23 -137 28 -167 42 -257 3 -21 9 -63 14 -93
5 -30 12 -73 15 -95 3 -22 7 -51 10 -65 2 -14 11 -77 20 -140 8 -63 17 -126
19 -140 3 -14 7 -47 11 -75 3 -27 8 -63 10 -80 9 -58 15 -105 20 -157 3 -29 8
-63 11 -76 2 -12 7 -48 10 -80 3 -31 7 -68 9 -82 3 -14 7 -53 10 -87 3 -34 7
-70 9 -80 2 -10 7 -47 11 -83 3 -36 8 -76 10 -90 2 -14 7 -54 10 -90 3 -36 8
-81 10 -100 4 -38 12 -110 20 -192 3 -29 7 -69 10 -88 2 -19 7 -71 10 -115 4
-44 8 -91 10 -105 2 -14 6 -59 9 -100 4 -41 9 -95 11 -120 3 -25 7 -74 10
-110 3 -36 7 -87 10 -115 2 -27 7 -86 10 -130 4 -44 8 -98 10 -120 2 -22 7
-80 10 -130 3 -49 8 -112 10 -140 4 -45 10 -133 20 -300 8 -128 15 -243 20
-310 2 -38 7 -115 10 -170 3 -55 8 -140 10 -190 10 -176 16 -300 30 -620 22
-520 39 -1085 50 -1740 6 -314 6 -1836 1 -2190 -8 -463 -21 -952 -32 -1178
l-5 -117 53 19 c44 17 237 74 288 86 178 41 357 80 420 92 14 2 57 10 95 18
39 8 88 17 110 20 22 4 56 10 75 15 19 4 58 12 85 16 28 4 57 9 65 11 8 2 31
5 50 8 19 3 55 9 80 15 45 9 94 17 160 26 19 2 62 9 95 15 76 14 91 16 140 24
35 5 107 16 200 31 17 2 41 6 55 9 23 4 70 11 140 20 14 2 39 6 55 9 17 3 50
8 75 11 25 3 59 8 75 11 46 8 305 44 345 49 19 2 64 8 100 14 36 5 84 12 108
15 23 4 61 9 85 12 23 3 51 7 62 9 41 5 131 17 155 20 55 8 411 54 460 60 14
2 45 6 70 9 25 4 61 8 80 10 19 2 53 6 75 10 76 10 200 26 248 31 26 3 60 7
75 9 34 5 102 14 167 21 28 3 61 8 75 11 14 2 50 6 80 9 73 7 117 12 165 19
22 3 60 8 85 11 62 7 122 14 210 25 41 5 100 12 130 15 30 3 71 8 90 10 33 5
64 8 175 21 28 3 61 7 75 9 14 2 54 6 90 10 36 3 76 8 90 10 14 2 48 7 75 9
139 15 219 24 275 31 19 3 60 7 90 10 30 3 71 8 90 10 19 2 60 7 90 10 30 3
71 7 90 10 75 9 138 16 195 20 33 3 76 7 95 10 47 6 104 13 170 20 30 3 76 8
101 11 26 3 49 2 52 -3 4 -7 10 -97 23 -368 5 -103 5 -789 0 -920 -7 -187 -22
-445 -31 -555 -2 -30 -7 -93 -10 -139 -3 -47 -8 -103 -10 -125 -2 -23 -7 -77
-10 -121 -3 -44 -8 -91 -10 -105 -2 -14 -6 -56 -10 -95 -3 -38 -8 -83 -10
-100 -2 -16 -6 -50 -9 -75 -4 -25 -8 -67 -11 -95 -7 -73 -16 -146 -20 -180 -2
-16 -7 -55 -10 -85 -3 -30 -8 -66 -10 -80 -3 -14 -7 -45 -10 -69 -3 -23 -7
-55 -9 -70 -3 -14 -8 -50 -11 -80 -4 -30 -8 -61 -10 -70 -1 -9 -6 -36 -9 -61
-3 -25 -8 -54 -10 -65 -2 -11 -7 -45 -11 -75 -4 -30 -9 -62 -10 -71 -3 -16 -6
-34 -26 -159 -16 -102 -17 -109 -35 -215 -9 -55 -18 -109 -20 -120 -2 -11 -15
-83 -29 -160 -25 -144 -45 -254 -71 -385 -8 -41 -17 -88 -20 -105 -6 -33 -11
-60 -19 -102 -9 -44 -96 -456 -101 -478 -3 -11 -7 -31 -10 -45 -12 -67 -157
-679 -170 -722 -4 -15 -1 -16 28 -7 18 6 42 11 54 13 11 2 25 6 31 9 5 3 20 8
34 10 13 3 53 13 89 22 36 9 72 18 80 20 8 2 83 20 165 40 83 20 157 38 165
40 9 1 69 15 135 30 135 30 148 33 190 41 17 2 46 9 65 14 19 5 96 21 170 36
74 14 144 28 155 30 11 2 43 8 71 14 28 6 64 13 80 16 16 2 65 11 109 19 105
19 302 53 340 59 103 16 122 19 140 22 11 2 40 7 65 10 25 3 54 8 65 10 11 3
52 9 90 14 39 5 84 11 100 14 17 2 53 7 80 11 28 3 61 8 75 10 45 7 184 24
240 30 30 3 66 8 80 10 14 2 54 7 90 10 73 7 125 13 190 20 73 9 199 21 310
30 41 3 98 8 125 10 87 8 187 15 265 20 41 2 118 7 170 10 361 23 617 30 1175
30 503 0 815 -7 995 -20 30 -2 107 -7 170 -10 63 -3 138 -8 165 -10 28 -2 91
-6 140 -10 50 -3 110 -8 135 -10 25 -3 79 -7 120 -11 154 -13 367 -33 400 -39
14 -2 54 -7 90 -10 36 -3 76 -7 90 -9 14 -2 54 -7 90 -11 36 -3 72 -8 80 -10
8 -3 35 -7 60 -9 25 -3 78 -10 118 -16 40 -5 94 -12 120 -15 26 -3 70 -10 97
-15 28 -6 70 -12 95 -15 25 -3 56 -7 70 -10 14 -3 39 -7 55 -9 36 -6 270 -45
305 -51 14 -3 39 -7 55 -10 17 -3 41 -8 55 -10 44 -9 73 -15 160 -31 47 -9 94
-18 105 -20 11 -2 34 -7 50 -10 17 -3 58 -11 93 -19 34 -8 77 -17 95 -20 17
-4 59 -12 92 -20 70 -16 243 -56 265 -60 8 -2 61 -14 116 -29 56 -14 112 -27
125 -30 13 -2 76 -19 139 -36 63 -17 124 -34 135 -36 11 -2 67 -18 125 -34 58
-17 113 -33 123 -35 23 -5 185 -53 217 -65 14 -5 106 -34 205 -65 173 -55 367
-124 525 -186 41 -16 80 -29 85 -29 7 0 10 859 10 2559 l0 2560 -105 -107
c-90 -92 -180 -177 -255 -242 -160 -137 -443 -329 -675 -457 -105 -58 -358
-183 -380 -187 -3 -1 -10 -4 -15 -8 -6 -4 -67 -30 -135 -58 -230 -95 -636
-231 -850 -284 -8 -3 -79 -20 -158 -40 -127 -32 -239 -58 -312 -72 -14 -3 -79
-16 -145 -29 -66 -13 -138 -26 -160 -29 -23 -4 -52 -8 -65 -11 -13 -3 -40 -7
-60 -10 -20 -3 -45 -7 -57 -9 -11 -3 -38 -7 -59 -10 -22 -3 -57 -9 -79 -13
-22 -4 -43 -6 -46 -5 -4 1 -33 -3 -65 -8 -33 -5 -79 -12 -104 -15 -25 -3 -61
-7 -80 -10 -19 -2 -60 -7 -90 -10 -30 -3 -71 -8 -90 -10 -19 -2 -64 -7 -100
-10 -36 -3 -83 -8 -105 -10 -22 -2 -76 -7 -120 -10 -44 -3 -105 -8 -135 -10
-52 -5 -146 -10 -320 -20 -325 -18 -1012 -23 -1405 -11 -362 12 -383 13 -655
30 -30 2 -107 7 -170 11 -63 3 -126 8 -140 10 -14 2 -72 7 -130 10 -58 4 -112
9 -121 10 -9 2 -57 6 -105 10 -49 3 -100 8 -114 10 -14 2 -59 7 -100 10 -41 3
-88 8 -105 10 -16 2 -57 7 -90 10 -33 3 -73 8 -90 10 -16 2 -75 9 -130 15 -55
6 -112 13 -127 16 -16 2 -40 6 -55 8 -16 3 -55 8 -88 11 -88 10 -174 21 -225
30 -14 2 -45 7 -70 10 -25 3 -56 8 -70 10 -14 3 -38 7 -55 9 -16 3 -70 12
-120 20 -49 8 -108 17 -129 21 -93 13 -89 9 -81 89 4 39 8 85 10 101 2 17 6
55 10 85 3 30 7 66 10 80 2 14 7 57 10 95 3 39 8 81 10 95 2 14 7 52 10 85 3
33 8 76 10 95 2 19 14 121 25 225 11 105 23 206 25 225 2 19 7 60 10 90 3 30
8 66 10 80 2 14 7 57 10 95 3 39 8 84 10 100 2 17 9 75 15 130 6 55 13 116 16
135 2 19 6 60 9 90 3 30 8 71 10 90 6 48 18 151 20 175 4 49 17 162 20 182 2
12 7 57 10 100 4 43 9 87 11 98 3 11 7 48 10 82 3 34 7 70 9 80 2 10 4 28 4
40 1 23 23 30 141 49 19 3 42 7 50 9 8 3 35 7 60 10 25 3 56 7 70 10 29 4 103
15 140 20 14 2 50 7 80 10 30 3 66 8 80 10 14 2 61 7 105 10 44 3 96 8 115 10
37 5 117 10 310 21 264 14 791 4 1040 -20 30 -3 91 -8 135 -12 44 -3 87 -8 95
-9 8 -1 49 -6 90 -10 41 -4 82 -9 90 -10 8 -1 40 -6 70 -10 57 -7 89 -11 140
-20 70 -12 138 -23 255 -42 137 -22 591 -126 760 -174 39 -10 86 -24 105 -29
231 -64 778 -259 817 -292 7 -6 13 -7 13 -3 0 4 7 2 15 -5 8 -7 16 -9 16 -4 1
5 2 831 3 1835 l1 1826 -115 -117 c-157 -161 -300 -269 -515 -391 -131 -74
-415 -205 -433 -199 -1 0 -15 -6 -30 -13 -29 -15 -153 -58 -292 -102 -135 -43
-464 -124 -570 -141 -14 -2 -56 -11 -95 -19 -65 -13 -272 -46 -375 -60 -25 -3
-52 -8 -60 -10 -8 -2 -48 -7 -89 -10 -41 -4 -82 -8 -90 -10 -55 -10 -370 -37
-596 -50 -411 -24 -997 -24 -1430 0 -49 3 -93 9 -97 13 -7 7 -12 41 -23 142
-3 30 -8 71 -10 90 -3 19 -7 58 -9 85 -3 28 -7 66 -10 85 -6 44 -13 108 -21
185 -5 55 -10 94 -20 165 -2 14 -6 55 -10 92 -3 37 -7 75 -9 85 -2 10 -7 52
-11 93 -4 41 -9 84 -11 95 -2 11 -6 47 -9 80 -3 33 -8 78 -10 100 -3 22 -8 58
-11 80 -2 22 -7 56 -9 75 -3 19 -7 61 -10 93 -3 32 -7 72 -10 90 -5 38 -12 99
-20 182 -4 33 -8 70 -10 83 -2 13 -7 53 -10 90 -3 37 -8 78 -11 92 -2 14 -7
50 -9 80 -3 30 -7 68 -10 85 -2 16 -6 57 -10 90 -3 33 -8 74 -10 90 -2 17 -6
57 -10 90 -3 33 -8 75 -11 92 -3 18 -7 54 -9 80 -3 27 -7 66 -10 88 -2 22 -7
61 -10 88 -8 77 -16 140 -20 172 -2 17 -7 55 -10 85 -3 30 -7 69 -9 85 -2 17
-7 60 -11 97 -3 37 -7 75 -9 85 -2 10 -7 49 -11 87 -4 38 -8 79 -10 90 -2 12
-6 50 -10 86 -4 36 -8 76 -10 90 -1 14 -6 54 -9 90 -4 36 -9 76 -11 90 -2 14
-7 52 -10 85 -3 33 -8 71 -10 85 -2 14 -6 54 -10 90 -4 36 -8 76 -10 90 -2 14
-7 50 -10 80 -3 30 -8 75 -11 100 -20 163 -26 219 -29 252 -7 82 -16 155 -21
181 -3 15 -2 27 3 28 54 6 214 17 368 25 61 3 142 7 180 9 385 23 1287 23
1710 0 221 -12 351 -21 460 -30 33 -3 94 -7 135 -10 41 -3 86 -8 100 -10 14
-2 61 -7 105 -11 44 -3 88 -8 98 -10 10 -2 48 -6 85 -9 37 -4 78 -8 92 -10 14
-2 45 -6 70 -10 25 -3 77 -10 115 -15 39 -5 90 -12 115 -15 25 -3 70 -10 100
-15 30 -5 87 -14 125 -20 39 -5 82 -12 97 -15 16 -3 38 -7 50 -9 13 -2 50 -9
83 -15 33 -6 74 -13 90 -16 17 -2 41 -7 55 -10 14 -3 39 -8 55 -11 53 -9 388
-82 455 -99 36 -9 72 -17 80 -19 356 -85 1002 -283 1177 -362 17 -8 34 -14 38
-14 12 0 338 -132 423 -171 46 -22 86 -39 87 -39 25 0 630 -306 666 -336 8 -8
19 -14 24 -14 6 0 107 -58 175 -100 8 -5 35 -21 60 -36 128 -77 490 -321 510
-344 3 -3 21 -17 40 -30 37 -26 198 -151 240 -186 231 -197 256 -220 445 -409
190 -190 223 -227 369 -410 116 -144 214 -283 280 -392 37 -63 52 -78 42 -45
-3 9 -8 62 -12 117 -3 55 -8 107 -9 116 -2 8 -6 55 -9 105 -4 49 -9 107 -11
129 -2 22 -7 76 -10 120 -3 44 -8 96 -10 115 -3 19 -7 71 -10 115 -3 44 -8 96
-10 115 -2 19 -7 73 -10 120 -4 47 -8 99 -10 115 -2 17 -6 71 -10 120 -3 50
-8 104 -10 120 -2 17 -6 66 -10 110 -4 44 -8 100 -11 125 -2 25 -6 79 -9 120
-6 73 -10 119 -20 230 -2 30 -7 84 -10 120 -10 135 -16 197 -21 250 -4 30 -8
78 -9 105 -6 80 -16 198 -20 230 -3 17 -7 68 -10 115 -6 93 -10 141 -19 240
-11 116 -16 174 -21 240 -3 36 -7 90 -10 120 -3 30 -7 84 -10 120 -3 36 -8 85
-10 110 -3 25 -7 79 -10 120 -3 41 -7 91 -10 110 -2 19 -7 77 -10 128 -4 51
-8 101 -10 110 -1 9 -6 62 -9 117 -4 55 -9 111 -11 125 -3 22 -9 84 -20 245
-6 85 -16 201 -20 230 -3 23 -13 145 -19 227 -2 18 -18 16 -79 -6 -79 -30
-404 -133 -439 -140 -14 -2 -58 -13 -99 -25 -70 -19 -324 -78 -379 -87 -14 -3
-48 -9 -76 -15 -28 -5 -64 -12 -80 -15 -16 -2 -51 -9 -79 -14 -27 -5 -126 -21
-220 -35 -231 -34 -222 -33 -290 -40 -33 -4 -71 -8 -85 -10 -14 -2 -56 -7 -95
-11 -38 -3 -81 -7 -95 -9 -26 -3 -124 -13 -200 -20 -25 -3 -81 -7 -125 -10
-44 -3 -100 -7 -125 -10 -24 -2 -96 -6 -160 -10 -63 -4 -140 -8 -170 -10 -212
-14 -542 -20 -1105 -19 -661 0 -993 7 -1405 29 -58 3 -148 8 -200 10 -129 6
-290 14 -375 20 -38 2 -108 7 -155 10 -203 13 -258 16 -310 20 -30 2 -89 6
-130 9 -184 13 -257 18 -290 21 -19 2 -78 7 -130 10 -52 4 -106 8 -120 10 -14
2 -74 7 -135 10 -60 4 -117 9 -126 10 -9 2 -56 6 -105 10 -49 3 -100 8 -114
10 -14 2 -70 7 -125 11 -55 3 -107 8 -115 9 -8 2 -55 6 -105 10 -49 4 -101 8
-115 10 -14 2 -68 7 -120 10 -52 4 -98 9 -101 10 -3 2 -48 6 -100 9 -52 4
-103 8 -114 10 -11 2 -58 7 -105 10 -47 4 -101 9 -120 11 -38 5 -125 13 -205
19 -147 13 -203 18 -230 21 -16 2 -66 7 -110 10 -44 3 -93 8 -110 10 -16 2
-68 7 -115 10 -47 4 -96 8 -110 11 -14 2 -70 6 -125 10 -55 3 -109 8 -120 10
-10 2 -62 6 -115 10 -52 3 -111 7 -130 9 -373 37 -1015 49 -1150 21 -8 -1 -33
-6 -55 -11 -49 -9 -120 -49 -129 -71 -3 -9 -1 -46 4 -82 6 -37 13 -80 16 -97
2 -16 6 -41 9 -55 4 -26 9 -59 30 -207 3 -21 7 -49 9 -63 2 -14 7 -47 11 -73
4 -27 8 -59 11 -70 2 -12 6 -40 9 -63 4 -35 38 -272 49 -344 4 -22 11 -70 21
-140 2 -14 9 -61 15 -106 6 -44 13 -91 15 -104 2 -13 9 -60 15 -104 14 -99 20
-144 25 -176 3 -14 12 -77 20 -140 9 -63 18 -126 20 -140 2 -14 7 -45 10 -70
3 -25 10 -70 15 -100 5 -30 11 -79 15 -109 3 -29 7 -56 9 -60 2 -3 7 -35 10
-70 4 -36 8 -67 10 -70 2 -3 6 -33 10 -66 3 -33 8 -73 11 -90 3 -16 7 -43 10
-60 3 -16 7 -51 10 -76 3 -26 8 -57 10 -70 3 -12 9 -59 15 -103 6 -45 13 -92
15 -106 2 -14 11 -74 19 -135 23 -165 26 -188 31 -210 2 -11 7 -47 11 -80 3
-33 8 -63 10 -66 1 -3 6 -37 9 -75 4 -38 9 -71 10 -74 2 -3 6 -33 10 -65 3
-33 8 -67 10 -75 4 -15 11 -62 20 -135 2 -22 7 -51 10 -65 2 -14 7 -45 9 -70
3 -25 12 -90 20 -145 8 -55 17 -120 21 -145 3 -25 8 -56 10 -70 2 -14 7 -45
10 -70 4 -25 8 -56 10 -70 2 -14 6 -43 9 -65 9 -61 25 -176 31 -217 3 -21 7
-54 10 -73 3 -19 7 -51 10 -70 3 -19 7 -52 10 -72 12 -79 24 -170 31 -218 3
-27 8 -59 10 -70 2 -11 6 -44 9 -74 3 -30 7 -57 9 -60 2 -3 7 -35 11 -71 3
-36 8 -72 10 -80 2 -8 7 -35 10 -60 3 -25 8 -56 10 -70 3 -14 7 -45 10 -70 5
-46 13 -106 20 -150 2 -14 9 -61 15 -105 6 -44 13 -91 15 -105 2 -14 7 -47 10
-75 3 -27 10 -75 15 -105 6 -30 12 -75 15 -100 3 -25 8 -63 12 -85 3 -22 7
-47 8 -55 9 -68 18 -138 21 -154 2 -10 6 -44 10 -75 3 -31 8 -58 9 -61 2 -3 7
-35 10 -70 4 -36 8 -67 10 -70 2 -3 6 -33 10 -68 l7 -62 -54 -1 c-61 -1 -100
-4 -258 -14 -63 -4 -137 -9 -165 -10 -74 -4 -225 -16 -265 -20 -19 -2 -75 -6
-125 -10 -49 -3 -101 -8 -115 -10 -14 -2 -62 -7 -107 -10 -45 -3 -91 -8 -102
-10 -12 -2 -58 -7 -104 -10 -45 -3 -89 -8 -97 -10 -8 -2 -46 -6 -85 -10 -38
-3 -126 -13 -195 -21 -69 -8 -145 -17 -170 -20 -25 -3 -61 -7 -80 -9 -19 -3
-55 -7 -80 -10 -50 -6 -191 -24 -230 -30 -23 -3 -76 -10 -158 -20 -45 -6 -110
-14 -152 -21 -19 -2 -51 -7 -70 -9 -19 -2 -53 -7 -75 -10 -49 -8 -76 -12 -135
-20 -25 -3 -56 -8 -70 -10 -14 -3 -86 -13 -160 -24 -74 -11 -178 -27 -230 -35
-52 -9 -113 -18 -135 -21 -69 -11 -152 -24 -185 -30 -14 -3 -41 -7 -60 -10
-19 -3 -60 -10 -90 -15 -30 -5 -73 -12 -95 -15 -22 -4 -76 -13 -120 -20 -44
-8 -96 -17 -115 -20 -42 -7 -135 -23 -170 -30 -25 -5 -338 -61 -395 -70 -16
-3 -50 -10 -75 -15 -25 -5 -72 -14 -105 -20 -33 -5 -71 -12 -85 -15 -14 -3
-50 -10 -80 -16 -30 -6 -68 -13 -85 -16 -16 -2 -70 -13 -120 -23 -49 -10 -92
-17 -96 -14 -3 2 -5 16 -3 31 2 16 6 71 9 123 7 122 14 214 20 270 2 25 7 83
10 130 3 47 8 105 10 130 2 25 7 77 10 115 3 39 8 88 10 110 2 22 7 74 10 115
4 41 8 86 10 100 2 14 6 59 10 100 3 41 8 86 10 100 2 14 7 61 10 104 4 43 8
86 10 95 1 9 6 52 10 95 4 43 8 86 10 95 1 9 6 50 10 91 4 41 8 82 10 90 2 9
6 47 9 85 4 39 9 77 11 85 2 8 6 47 10 85 3 39 8 81 10 95 2 14 6 45 9 70 3
25 12 99 20 165 8 66 18 145 21 175 4 30 8 66 10 80 2 14 6 43 9 65 3 22 8 63
11 90 3 28 7 61 10 75 4 27 21 154 30 235 4 28 8 61 10 75 2 14 6 43 9 65 6
42 33 237 41 293 3 18 8 54 11 80 3 26 7 61 10 77 3 17 7 46 10 65 3 32 9 71
19 140 2 14 11 75 20 135 25 174 24 167 50 340 8 50 17 110 20 135 3 25 10 70
15 100 5 30 12 75 15 100 4 25 15 101 26 170 11 69 23 141 25 160 2 19 9 61
15 93 5 32 12 74 14 95 3 20 8 53 11 72 4 19 8 44 9 55 2 16 44 280 60 375 2
14 7 43 10 65 16 102 25 157 30 175 2 8 7 38 11 65 3 28 7 57 9 65 1 8 6 35
10 60 4 25 9 52 10 60 1 8 6 35 10 60 4 25 9 52 10 60 1 8 6 35 10 60 4 25 9
54 11 65 6 30 44 255 50 295 11 75 15 96 19 110 2 8 6 33 10 55 3 22 12 76 20
120 8 44 17 96 20 115 3 19 7 46 10 60 3 14 7 41 10 60 3 19 8 42 10 50 2 8 7
33 10 55 3 23 7 52 10 65 8 39 24 131 30 170 3 19 7 46 10 60 3 14 7 39 10 55
3 17 7 41 10 55 5 24 14 71 21 115 2 11 6 31 8 45 3 14 8 41 10 60 3 19 8 46
11 60 3 14 8 41 11 60 3 19 7 42 9 50 2 8 6 29 9 45 14 84 17 101 21 115 2 8
6 33 10 55 3 22 17 99 30 170 13 72 27 146 30 165 3 19 17 93 30 165 13 71 27
146 30 165 3 19 8 42 10 50 2 8 7 31 10 50 3 19 21 116 40 215 19 99 37 196
40 215 3 19 17 89 30 156 13 66 26 133 29 149 3 16 10 51 15 79 6 28 13 65 16
81 25 136 37 194 55 290 12 61 24 121 26 135 3 14 20 102 39 195 28 142 52
265 81 415 3 14 27 136 55 273 27 136 52 264 55 285 3 20 8 40 10 43 2 3 6 21
9 40 7 38 36 181 95 469 72 348 92 445 96 469 3 12 11 51 19 85 8 33 17 77 20
96 3 19 8 43 11 53 3 10 7 30 9 45 2 15 18 89 35 165 16 76 30 139 30 140 0 1
-1467 2 -3259 2 -1793 0 -3258 -1 -3257 -2z"/>
</g>
</svg>
